<?xml version="1.0" standalone="no"?><!DOCTYPE svg PUBLIC "-//W3C//DTD SVG 1.1//EN" "http://www.w3.org/Graphics/SVG/1.1/DTD/svg11.dtd"><svg class="icon" width="200px" height="200.00px" viewBox="0 0 1024 1024" version="1.1" xmlns="http://www.w3.org/2000/svg"><path fill="#333333" d="M273.3 96.2c47.2 0 91.5 18.4 124.9 51.7 33.4 33.4 51.7 77.7 51.7 124.9s-18.4 91.5-51.7 124.9c-33.4 33.4-77.7 51.7-124.9 51.7s-91.5-18.4-124.9-51.7C115 364.4 96.6 320 96.6 272.9S115 181.3 148.4 148c33.3-33.4 77.7-51.8 124.9-51.8m0-32c-115.2 0-208.6 93.4-208.6 208.6s93.4 208.6 208.6 208.6c115.2 0 208.6-93.4 208.6-208.6S388.5 64.2 273.3 64.2zM273.3 573.9c47.2 0 91.5 18.4 124.9 51.7 33.4 33.4 51.7 77.7 51.7 124.9s-18.4 91.5-51.7 124.9c-33.4 33.4-77.7 51.7-124.9 51.7s-91.5-18.4-124.9-51.7C115 842 96.7 797.7 96.7 750.5s18.4-91.5 51.7-124.9c33.3-33.3 77.7-51.7 124.9-51.7m0-32c-115.2 0-208.6 93.4-208.6 208.6s93.4 208.6 208.6 208.6c115.2 0 208.6-93.4 208.6-208.6s-93.4-208.6-208.6-208.6zM751.4 573.9c47.2 0 91.5 18.4 124.9 51.7 33.4 33.4 51.7 77.8 51.7 125s-18.4 91.5-51.7 124.9c-33.4 33.4-77.7 51.7-124.9 51.7s-91.5-18.4-124.9-51.7c-33.4-33.4-51.7-77.7-51.7-124.9s18.4-91.5 51.7-124.9c33.3-33.4 77.7-51.8 124.9-51.8m0-32c-115.2 0-208.6 93.4-208.6 208.6s93.4 208.6 208.6 208.6c115.2 0 208.6-93.4 208.6-208.6s-93.4-208.6-208.6-208.6zM751.4 96.2c47.2 0 91.5 18.4 124.9 51.7 33.4 33.4 51.7 77.7 51.7 124.9s-18.4 91.5-51.7 124.9c-33.4 33.4-77.7 51.7-124.9 51.7s-91.5-18.4-124.9-51.7c-33.4-33.4-51.7-77.7-51.7-124.9s18.4-91.5 51.7-124.9c33.3-33.3 77.7-51.7 124.9-51.7m0-32c-115.2 0-208.6 93.4-208.6 208.6 0 115.2 93.4 208.6 208.6 208.6C866.6 481.4 960 388 960 272.8c0-115.2-93.4-208.6-208.6-208.6zM751.4 215.3c31.7 0 57.6 25.8 57.6 57.6s-25.8 57.6-57.6 57.6-57.6-25.8-57.6-57.6 25.8-57.6 57.6-57.6m0-32c-49.5 0-89.6 40.1-89.6 89.6s40.1 89.6 89.6 89.6 89.6-40.1 89.6-89.6-40.1-89.6-89.6-89.6z" /></svg>